<?xml version="1.0" encoding="utf-8"?>
<!-- Generator: Adobe Illustrator 16.0.0, SVG Export Plug-In . SVG Version: 6.00 Build 0)  -->
<!DOCTYPE svg PUBLIC "-//W3C//DTD SVG 1.1//EN" "http://www.w3.org/Graphics/SVG/1.1/DTD/svg11.dtd">
<svg version="1.1" id="Layer_1" xmlns="http://www.w3.org/2000/svg" xmlns:xlink="http://www.w3.org/1999/xlink" x="0px" y="0px"
	 width="285.059px" height="205px" viewBox="0 0 285.059 205" enable-background="new 0 0 285.059 205" xml:space="preserve">
<polygon fill="#8A8B85" points="193.354,136.586 89.708,136.586 89.708,32.938 193.354,32.938 "/>
<path fill="#FFFFFF" d="M158.439,121.807c3.429-3.869,5.557-8.916,5.686-14.443c5.535-0.133,10.572-2.26,14.438-5.685
	c-0.3,5.058-2.37,10.025-6.237,13.888C168.467,119.418,163.503,121.494,158.439,121.807L158.439,121.807z M104.486,101.67
	c3.874,3.434,8.915,5.561,14.438,5.691c0.133,5.529,2.263,10.576,5.689,14.434c-5.063-0.295-10.031-2.377-13.886-6.229
	C106.875,111.703,104.798,106.736,104.486,101.67L104.486,101.67z M110.729,53.965c3.854-3.855,8.821-5.931,13.886-6.233
	c-3.428,3.86-5.558,8.91-5.682,14.438c-5.532,0.135-10.573,2.263-14.447,5.686C104.798,62.793,106.875,57.819,110.729,53.965
	L110.729,53.965z M178.562,67.854c-3.865-3.423-8.902-5.551-14.438-5.686c-0.129-5.527-2.257-10.577-5.686-14.438
	c5.064,0.303,10.028,2.378,13.886,6.233C176.192,57.819,178.262,62.793,178.562,67.854L178.562,67.854z M156.861,121.84
	c-5.26-0.061-10.474-2.029-14.542-5.904c3.831-4.035,5.894-9.158,6.177-14.348c3.868,3.475,8.944,5.637,14.518,5.773
	C162.854,112.993,160.542,118.088,156.861,121.84L156.861,121.84z M134.564,101.588c0.272,5.191,2.332,10.313,6.17,14.348
	c-4.066,3.863-9.29,5.844-14.536,5.904c-3.683-3.752-5.992-8.847-6.149-14.479C125.611,107.225,130.689,105.063,134.564,101.588
	L134.564,101.588z M126.198,47.68c5.246,0.067,10.47,2.041,14.536,5.913c-3.838,4.032-5.896,9.156-6.179,14.36
	c-3.866-3.484-8.944-5.644-14.508-5.784C120.205,56.54,122.515,51.44,126.198,47.68L126.198,47.68z M148.495,67.953
	c-0.283-5.202-2.346-10.328-6.177-14.36c4.068-3.872,9.282-5.846,14.552-5.913c3.673,3.761,5.983,8.86,6.143,14.489
	C157.44,62.31,152.364,64.469,148.495,67.953L148.495,67.953z M157.298,90.649c-2.94-2.874-6.654-4.945-10.807-5.882
	c4.151-0.937,7.865-3.012,10.807-5.879c5.276,0.041,10.527,2.003,14.607,5.879C167.826,88.645,162.566,90.602,157.298,90.649
	L157.298,90.649z M143.023,85.396c4.776,0.327,9.133,2.23,12.543,5.186C151.047,90.265,146.625,88.531,143.023,85.396
	L143.023,85.396z M142.148,86.26c3.146,3.604,4.873,8.029,5.201,12.554C144.388,95.391,142.486,91.04,142.148,86.26L142.148,86.26z
	 M140.898,86.26c-0.328,4.78-2.233,9.134-5.196,12.554C136.026,94.289,137.764,89.873,140.898,86.26L140.898,86.26z M140.036,85.396
	c-3.609,3.136-8.034,4.869-12.553,5.192C130.908,87.626,135.25,85.723,140.036,85.396L140.036,85.396z M125.758,78.889
	c2.938,2.867,6.653,4.942,10.795,5.879c-4.142,0.937-7.857,3.012-10.795,5.882c-5.279-0.048-10.522-2.005-14.612-5.882
	C115.236,80.884,120.479,78.93,125.758,78.889L125.758,78.889z M140.036,84.152c-4.785-0.337-9.128-2.246-12.553-5.211
	C132.001,79.268,136.426,80.996,140.036,84.152L140.036,84.152z M140.898,83.273c-3.134-3.607-4.872-8.026-5.196-12.549
	C138.664,74.146,140.57,78.499,140.898,83.273L140.898,83.273z M142.148,83.273c0.338-4.77,2.24-9.128,5.201-12.549
	C147.021,75.247,145.292,79.666,142.148,83.273L142.148,83.273z M155.566,78.941c-3.41,2.965-7.767,4.874-12.552,5.211
	C146.633,80.996,151.047,79.268,155.566,78.941L155.566,78.941z M163.012,63.284c-0.167,5.638-2.49,10.739-6.192,14.498
	c-4.098,0.049-8.195,1.211-11.79,3.473c2.271-3.583,3.429-7.682,3.485-11.78C152.272,65.774,157.369,63.444,163.012,63.284
	L163.012,63.284z M141.521,54.385c3.88,4.088,5.841,9.335,5.883,14.61c-2.868,2.94-4.938,6.667-5.883,10.806
	c-0.923-4.139-3.012-7.865-5.874-10.806C135.68,63.72,137.645,58.464,141.521,54.385L141.521,54.385z M134.536,69.47
	c0.046,4.104,1.215,8.202,3.476,11.785c-3.576-2.262-7.672-3.424-11.779-3.473c-3.688-3.759-6.026-8.86-6.177-14.498
	C125.682,63.444,130.784,65.774,134.536,69.47L134.536,69.47z M120.047,106.24c0.157-5.618,2.495-10.729,6.185-14.483
	c4.107-0.057,8.203-1.218,11.779-3.483c-2.261,3.592-3.43,7.68-3.476,11.789C130.784,103.752,125.682,106.084,120.047,106.24
	L120.047,106.24z M141.521,115.139c-3.876-4.072-5.841-9.332-5.874-14.604c2.862-2.934,4.951-6.653,5.874-10.796
	c0.943,4.143,3.015,7.858,5.883,10.796C147.362,105.807,145.401,111.066,141.521,115.139L141.521,115.139z M148.515,100.061
	c-0.054-4.107-1.211-8.195-3.485-11.779c3.604,2.26,7.692,3.419,11.79,3.476c3.702,3.755,6.025,8.865,6.192,14.482
	C157.369,106.084,152.272,103.752,148.515,100.061L148.515,100.061z M178.608,69.436c-0.066,5.25-2.031,10.474-5.914,14.546
	c-4.03-3.844-9.152-5.902-14.354-6.179c3.48-3.874,5.635-8.952,5.784-14.519C169.758,63.441,174.847,65.757,178.608,69.436
	L178.608,69.436z M118.933,63.284c0.133,5.566,2.297,10.645,5.771,14.519c-5.194,0.285-10.311,2.335-14.352,6.177
	c-3.87-4.07-5.841-9.294-5.903-14.544C108.209,65.757,113.299,63.441,118.933,63.284L118.933,63.284z M104.449,100.103
	c0.063-5.247,2.033-10.482,5.903-14.549c4.041,3.837,9.156,5.904,14.352,6.188c-3.475,3.865-5.639,8.937-5.771,14.51
	C113.299,106.094,108.209,103.779,104.449,100.103L104.449,100.103z M164.124,106.251c-0.149-5.573-2.304-10.645-5.784-14.51
	c5.201-0.287,10.323-2.351,14.354-6.188c3.883,4.066,5.848,9.302,5.914,14.549C174.847,103.779,169.758,106.094,164.124,106.251
	L164.124,106.251z M179.724,100.576c4.01-4.068,6.477-9.657,6.483-15.809c-0.008-6.148-2.475-11.727-6.483-15.813
	c-0.059-5.723-2.258-11.432-6.613-15.783c-4.344-4.341-10.049-6.543-15.771-6.602c-4.081-4.003-9.666-6.478-15.819-6.486
	c-6.146,0.009-11.724,2.483-15.809,6.486c-5.718,0.059-11.423,2.261-15.771,6.607c-4.35,4.346-6.561,10.055-6.607,15.777
	c-4.006,4.086-6.477,9.664-6.477,15.813c0,6.151,2.471,11.735,6.477,15.809c0.055,5.725,2.259,11.424,6.607,15.774
	c4.35,4.346,10.055,6.551,15.771,6.603c4.085,4.014,9.663,6.485,15.809,6.485c6.153,0,11.738-2.473,15.819-6.485
	c5.722-0.052,11.427-2.257,15.771-6.603C177.466,112,179.666,106.301,179.724,100.576L179.724,100.576z"/>
<polygon fill="#6D6E71" points="83.98,177.627 82.225,177.641 78.872,167.201 75.348,177.623 73.648,177.627 68.673,164.549 
	70.536,164.553 74.485,175.148 78.092,164.549 79.654,164.549 83.104,175.197 86.99,164.553 88.851,164.549 "/>
<path fill="#6D6E71" d="M104.983,171.094c0-1.451-0.566-2.684-1.698-3.705c-1.14-1.018-2.624-1.525-4.457-1.525
	c-1.835,0-3.325,0.509-4.458,1.525c-1.135,1.021-1.705,2.254-1.705,3.705c0,1.447,0.57,2.678,1.705,3.693
	c1.133,1.023,2.623,1.529,4.458,1.529c1.833,0,3.317-0.506,4.457-1.529C104.416,173.771,104.983,172.541,104.983,171.094
	L104.983,171.094z M98.827,178.035c-2.276,0-4.157-0.641-5.646-1.912c-1.491-1.289-2.236-2.965-2.236-5.029
	c0-2.051,0.745-3.727,2.236-5.016c1.487-1.287,3.368-1.928,5.646-1.928c2.27,0,4.151,0.639,5.643,1.916
	c1.488,1.283,2.23,2.955,2.23,5.027c0,2.049-0.742,3.721-2.23,5.01C102.979,177.391,101.096,178.035,98.827,178.035L98.827,178.035z
	"/>
<path fill="#6D6E71" d="M118.898,170.613c0.959,0,1.744-0.16,2.348-0.48c0.61-0.32,0.909-0.887,0.909-1.693
	c0-0.655-0.235-1.184-0.708-1.573c-0.471-0.4-1.318-0.595-2.549-0.595h-6.386v4.342H118.898L118.898,170.613z M124.151,177.627
	l-2.152,0.01l-3.703-5.309h-5.782v5.299h-1.721v-13.078h8.105c1.382,0,2.554,0.313,3.522,0.926c0.973,0.613,1.451,1.6,1.451,2.965
	c0,1.094-0.375,1.974-1.136,2.638c-0.757,0.67-1.55,1.041-2.398,1.127L124.151,177.627L124.151,177.627z"/>
<polygon fill="#6D6E71" points="139.292,177.627 129.1,177.627 129.1,164.549 130.818,164.549 130.818,175.914 139.292,175.914 "/>
<path fill="#6D6E71" d="M150.61,175.912c1.416,0,2.55-0.441,3.396-1.322c0.854-0.881,1.278-2.051,1.278-3.496
	c0-1.428-0.426-2.594-1.259-3.49c-0.85-0.889-1.961-1.334-3.363-1.334h-5.651v9.644L150.61,175.912L150.61,175.912z M150.61,164.547
	c2.037,0,3.615,0.625,4.731,1.859c1.106,1.242,1.661,2.797,1.661,4.688c0,1.885-0.555,3.441-1.661,4.684
	c-1.116,1.236-2.694,1.851-4.731,1.851h-7.319v-13.08L150.61,164.547L150.61,164.547z"/>
<polygon fill="#6D6E71" points="175.522,177.627 173.806,177.627 173.806,166.271 168.55,166.271 168.55,164.549 180.777,164.549 
	180.777,166.271 175.522,166.271 "/>
<path fill="#6D6E71" d="M197.364,171.094c0-1.451-0.564-2.684-1.697-3.705c-1.139-1.018-2.624-1.525-4.461-1.525
	c-1.832,0-3.322,0.509-4.455,1.525c-1.143,1.021-1.704,2.254-1.704,3.705c0,1.447,0.563,2.678,1.704,3.693
	c1.133,1.023,2.623,1.529,4.455,1.529c1.837,0,3.322-0.506,4.461-1.529C196.798,173.771,197.364,172.541,197.364,171.094
	L197.364,171.094z M191.205,178.035c-2.273,0-4.155-0.641-5.644-1.912c-1.49-1.289-2.24-2.965-2.24-5.029
	c0-2.051,0.75-3.727,2.24-5.016c1.487-1.287,3.369-1.928,5.644-1.928c2.273,0,4.151,0.639,5.646,1.916
	c1.486,1.283,2.229,2.955,2.229,5.027c0,2.049-0.741,3.721-2.229,5.01C195.357,177.391,193.479,178.035,191.205,178.035
	L191.205,178.035z"/>
<polygon fill="#6D6E71" points="215.975,177.627 214.222,177.641 210.87,167.201 207.346,177.623 205.647,177.627 200.675,164.549 
	202.541,164.553 206.489,175.148 210.09,164.549 211.657,164.549 215.105,175.197 218.986,164.553 220.851,164.549 "/>
<polygon fill="#6D6E71" points="235.797,177.627 224.058,177.627 224.058,164.549 235.527,164.549 235.527,166.271 225.774,166.271 
	225.774,170.086 231.358,170.086 231.358,171.793 225.774,171.793 225.774,175.914 235.797,175.914 "/>
<path fill="#6D6E71" d="M248.095,170.613c0.958,0,1.74-0.16,2.349-0.48c0.609-0.32,0.908-0.887,0.908-1.693
	c0-0.655-0.232-1.184-0.704-1.573c-0.479-0.4-1.323-0.595-2.553-0.595h-6.384v4.342H248.095L248.095,170.613z M253.346,177.627
	l-2.148,0.01l-3.701-5.309h-5.784v5.299h-1.726v-13.078h8.108c1.378,0,2.557,0.313,3.519,0.926c0.976,0.613,1.454,1.6,1.454,2.965
	c0,1.094-0.375,1.974-1.133,2.638c-0.758,0.67-1.558,1.041-2.395,1.127L253.346,177.627L253.346,177.627z"/>
<path fill="#6D6E71" d="M266.356,170.031c1.396,0,2.6,0.322,3.61,0.973c1.013,0.648,1.508,1.604,1.508,2.863
	c0,1.229-0.491,2.227-1.486,3.006c-0.995,0.775-2.614,1.16-4.867,1.16c-1.87,0-3.398-0.229-4.585-0.691
	c-1.188-0.463-2.249-1.006-3.194-1.629l0.833-1.563c1.091,0.785,2.186,1.348,3.265,1.68c1.091,0.324,2.273,0.488,3.548,0.488
	c1.604,0,2.796-0.215,3.591-0.646c0.791-0.422,1.19-1.014,1.19-1.758c0-0.717-0.305-1.264-0.899-1.625
	c-0.601-0.359-1.315-0.543-2.137-0.543l-3.915-0.096c-1.036,0-2.053-0.299-3.026-0.891c-0.979-0.593-1.466-1.5-1.466-2.75
	c0-1.128,0.508-2.052,1.523-2.777c1.021-0.723,2.396-1.086,4.135-1.086c1.366,0,2.604,0.151,3.729,0.465
	c1.106,0.313,2.12,0.764,3.015,1.357l-0.787,1.53c-0.874-0.502-1.786-0.901-2.752-1.194c-0.958-0.295-1.907-0.443-2.853-0.443
	c-1.518,0-2.611,0.203-3.282,0.598c-0.67,0.393-1.012,0.902-1.012,1.523c0,0.674,0.254,1.164,0.758,1.479
	c0.504,0.316,1.148,0.469,1.924,0.469L266.356,170.031L266.356,170.031z"/>
<polygon fill="#6D6E71" points="18.548,177.611 16.833,177.611 16.833,166.266 11.585,166.266 11.585,164.547 23.788,164.547 
	23.788,166.266 18.548,166.266 "/>
<polygon fill="#6D6E71" points="39.897,177.611 38.184,177.611 38.184,171.76 29.21,171.76 29.21,177.611 27.495,177.611 
	27.495,164.547 29.21,164.547 29.21,170.049 38.184,170.049 38.184,164.547 39.897,164.547 "/>
<polygon fill="#6D6E71" points="56.214,177.611 44.49,177.611 44.49,164.547 55.934,164.547 55.934,166.266 46.202,166.266 
	46.202,170.07 51.771,170.07 51.771,171.783 46.202,171.783 46.202,175.893 56.214,175.893 "/>
</svg>
